<svg width="662" height="779" viewBox="0 0 662 779" fill="none" xmlns="http://www.w3.org/2000/svg">
<g clip-path="url(#clip0_914_84)">
<path d="M0 777L39.7737 697.734C79.5473 619.656 159.095 459.344 238.642 428.766C318.189 397 397.737 492 477.284 555.234C556.831 619.656 636.379 649.344 715.926 571.266C795.473 492 875.021 302 954.568 222.734C1034.12 144.656 1113.66 174.344 1153.44 191.266L1193.21 207V967H1153.44C1113.66 967 1034.12 967 954.568 967C875.021 967 795.473 967 715.926 967C636.379 967 556.831 967 477.284 967C397.737 967 318.189 967 238.642 967C159.095 967 79.5473 967 39.7737 967H0V777Z" fill="#2F9E41"/>
</g>
<path d="M81.9267 208.353C81.9267 208.353 55.9491 223.197 52.238 260.308C48.5269 297.419 89.3489 349.374 95.534 396.381C101.719 443.389 52.238 454.522 72.0305 513.899C91.8229 573.277 195.733 586.884 251.4 563.38C307.066 539.877 333.044 480.499 415.925 480.499C498.805 480.499 558.183 442.152 553.235 356.797C548.287 271.442 529.731 245.464 462.932 195.983C396.132 146.502 163.571 124.235 81.9267 208.353Z" fill="#92E3A9"/>
<path opacity="0.7" d="M81.9267 208.353C81.9267 208.353 55.9491 223.197 52.238 260.308C48.5269 297.419 89.3489 349.374 95.534 396.381C101.719 443.389 52.238 454.522 72.0305 513.899C91.8229 573.277 195.733 586.884 251.4 563.38C307.066 539.877 333.044 480.499 415.925 480.499C498.805 480.499 558.183 442.152 553.235 356.797C548.287 271.442 529.731 245.464 462.932 195.983C396.132 146.502 163.571 124.235 81.9267 208.353Z" fill="white"/>
<path d="M484.703 181.782H100.828C94.1469 181.782 88.7303 187.198 88.7303 193.88V464.863C88.7303 471.545 94.1469 476.962 100.828 476.962H484.703C491.385 476.962 496.801 471.545 496.801 464.863V193.88C496.801 187.198 491.385 181.782 484.703 181.782Z" fill="#92E3A9" stroke="#2E353A" stroke-width="1.50103" stroke-miterlimit="10"/>
<path d="M489.156 210.135H96.3626V458.864H489.156V210.135Z" fill="white" stroke="#2E353A" stroke-width="1.50103" stroke-miterlimit="10"/>
<path d="M116.909 406.228H233.772" stroke="#2E353A" stroke-linecap="round" stroke-linejoin="round"/>
<path d="M136.257 417.832H233.772" stroke="#2E353A" stroke-linecap="round" stroke-linejoin="round"/>
<path d="M116.909 417.832H126.187" stroke="#2E353A" stroke-linecap="round" stroke-linejoin="round"/>
<path d="M116.909 429.435H233.772" stroke="#2E353A" stroke-linecap="round" stroke-linejoin="round"/>
<path d="M225.249 441.051H233.772" stroke="#2E353A" stroke-linecap="round" stroke-linejoin="round"/>
<path d="M116.909 441.051H215.191" stroke="#2E353A" stroke-linecap="round" stroke-linejoin="round"/>
<path d="M388.537 230.471H120.163C116.276 230.471 113.125 233.623 113.125 237.51V314.268C113.125 318.155 116.276 321.306 120.163 321.306H388.537C392.424 321.306 395.576 318.155 395.576 314.268V237.51C395.576 233.623 392.424 230.471 388.537 230.471Z" fill="#2E353A"/>
<path d="M388.549 231.09C389.392 231.09 390.226 231.256 391.004 231.579C391.782 231.902 392.489 232.375 393.085 232.971C393.68 233.567 394.151 234.275 394.473 235.054C394.794 235.833 394.959 236.667 394.957 237.51V314.268C394.959 315.11 394.794 315.945 394.473 316.724C394.151 317.502 393.68 318.21 393.085 318.807C392.489 319.403 391.782 319.876 391.004 320.199C390.226 320.522 389.392 320.688 388.549 320.688H120.114C118.411 320.688 116.778 320.011 115.574 318.807C114.37 317.603 113.694 315.97 113.694 314.268V237.51C113.694 235.807 114.37 234.174 115.574 232.97C116.778 231.766 118.411 231.09 120.114 231.09H388.549ZM388.549 229.853H120.114C118.084 229.856 116.138 230.664 114.703 232.099C113.268 233.534 112.46 235.48 112.457 237.51V314.268C112.46 316.297 113.268 318.243 114.703 319.678C116.138 321.114 118.084 321.922 120.114 321.925H388.549C390.578 321.922 392.522 321.113 393.956 319.678C395.389 318.242 396.194 316.296 396.194 314.268V237.51C396.194 235.481 395.389 233.536 393.956 232.1C392.522 230.664 390.578 229.856 388.549 229.853Z" fill="#2E353A"/>
<path d="M338.511 231.09C337.116 232.546 335.441 233.706 333.586 234.498C331.731 235.29 329.735 235.698 327.718 235.698C325.701 235.698 323.705 235.29 321.85 234.498C319.995 233.706 318.32 232.546 316.925 231.09H310.467L310.641 231.386L308.303 233.762C307.869 234.199 307.626 234.791 307.626 235.407C307.626 236.023 307.869 236.614 308.303 237.052L311.383 240.132C311.598 240.35 311.854 240.523 312.137 240.641C312.419 240.759 312.722 240.819 313.028 240.819C313.334 240.819 313.637 240.759 313.92 240.641C314.202 240.523 314.458 240.35 314.673 240.132L317.048 237.757C318.949 238.96 321.041 239.83 323.234 240.33V243.695C323.234 244.312 323.479 244.903 323.915 245.339C324.351 245.776 324.942 246.021 325.559 246.021H329.914C330.53 246.021 331.122 245.776 331.558 245.339C331.994 244.903 332.239 244.312 332.239 243.695V240.33C334.432 239.83 336.524 238.96 338.424 237.757L340.799 240.132C341.014 240.35 341.271 240.523 341.553 240.641C341.836 240.759 342.139 240.819 342.445 240.819C342.751 240.819 343.054 240.759 343.336 240.641C343.619 240.523 343.875 240.35 344.09 240.132L347.17 237.052C347.604 236.614 347.847 236.023 347.847 235.407C347.847 234.791 347.604 234.199 347.17 233.762L344.795 231.386L344.968 231.09H338.511Z" fill="#92E3A9"/>
<path d="M228.341 319.537H224.976C224.476 317.344 223.606 315.253 222.403 313.352L224.778 310.977C224.996 310.762 225.169 310.506 225.287 310.223C225.405 309.941 225.466 309.638 225.466 309.332C225.466 309.026 225.405 308.723 225.287 308.44C225.169 308.158 224.996 307.902 224.778 307.687L221.711 304.582C221.494 304.364 221.237 304.19 220.954 304.072C220.67 303.954 220.366 303.893 220.059 303.893C219.752 303.893 219.448 303.954 219.165 304.072C218.881 304.19 218.624 304.364 218.408 304.582L216.033 306.957C214.131 305.755 212.04 304.885 209.847 304.384V301.019C209.844 300.401 209.596 299.81 209.158 299.374C208.72 298.938 208.127 298.693 207.509 298.693H203.155C202.537 298.693 201.944 298.938 201.506 299.374C201.068 299.81 200.82 300.401 200.817 301.019V304.384C198.625 304.885 196.533 305.755 194.632 306.957L192.257 304.582C192.042 304.364 191.786 304.191 191.503 304.073C191.221 303.955 190.918 303.894 190.612 303.894C190.306 303.894 190.003 303.955 189.72 304.073C189.438 304.191 189.182 304.364 188.966 304.582L185.837 307.662C185.619 307.877 185.446 308.133 185.328 308.416C185.21 308.698 185.15 309.001 185.15 309.307C185.15 309.613 185.21 309.916 185.328 310.199C185.446 310.481 185.619 310.737 185.837 310.952L188.212 313.327C187.009 315.228 186.139 317.32 185.639 319.513H182.274C181.87 319.511 181.473 319.617 181.123 319.819C180.773 320.021 180.483 320.313 180.282 320.663H190.661C191.418 317.35 193.278 314.392 195.935 312.274C198.593 310.155 201.891 309.002 205.289 309.002C208.687 309.002 211.985 310.155 214.643 312.274C217.3 314.392 219.16 317.35 219.917 320.663H230.37C230.163 320.312 229.865 320.022 229.509 319.824C229.152 319.626 228.749 319.527 228.341 319.537V319.537Z" fill="#92E3A9"/>
<path d="M117.194 292.805H121.511C122.131 292.805 122.726 292.559 123.165 292.12C123.603 291.682 123.849 291.087 123.849 290.467V287.115C126.042 286.613 128.133 285.743 130.035 284.542L132.41 286.917C132.625 287.135 132.881 287.307 133.163 287.425C133.446 287.543 133.749 287.604 134.055 287.604C134.361 287.604 134.664 287.543 134.946 287.425C135.229 287.307 135.485 287.135 135.7 286.917L138.83 283.812C139.047 283.597 139.22 283.341 139.338 283.058C139.456 282.776 139.517 282.473 139.517 282.167C139.517 281.861 139.456 281.558 139.338 281.275C139.22 280.993 139.047 280.737 138.83 280.521L136.455 278.146C137.658 276.246 138.528 274.154 139.028 271.961H142.392C143.009 271.961 143.601 271.716 144.037 271.28C144.473 270.844 144.718 270.252 144.718 269.636V265.257C144.718 264.64 144.473 264.048 144.037 263.612C143.601 263.176 143.009 262.931 142.392 262.931H139.028C138.523 260.739 137.653 258.649 136.455 256.746L138.83 254.371C139.047 254.155 139.22 253.899 139.338 253.617C139.456 253.334 139.517 253.031 139.517 252.725C139.517 252.419 139.456 252.116 139.338 251.834C139.22 251.552 139.047 251.295 138.83 251.08L135.75 248C135.312 247.566 134.721 247.323 134.104 247.323C133.488 247.323 132.897 247.566 132.459 248L130.084 250.412C128.18 249.22 126.089 248.354 123.899 247.851V244.487C123.902 244.173 123.843 243.863 123.724 243.573C123.604 243.283 123.428 243.02 123.206 242.8C122.983 242.579 122.718 242.406 122.427 242.29C122.136 242.174 121.825 242.117 121.511 242.124H117.157C116.54 242.124 115.949 242.369 115.513 242.805C115.076 243.241 114.831 243.833 114.831 244.45V247.814C114.448 247.901 114.077 248.012 113.706 248.124V253.554C115.017 253.011 116.401 252.666 117.813 252.527C120.088 252.275 122.391 252.547 124.546 253.321C126.7 254.096 128.649 255.352 130.243 256.995C131.838 258.638 133.035 260.624 133.745 262.801C134.454 264.977 134.656 267.287 134.336 269.554C134.016 271.821 133.182 273.985 131.897 275.88C130.612 277.775 128.912 279.351 126.925 280.488C124.938 281.625 122.717 282.293 120.432 282.44C118.148 282.587 115.859 282.21 113.743 281.338V286.781C114.114 286.892 114.485 287.003 114.869 287.09V290.442C114.865 290.75 114.923 291.056 115.038 291.342C115.153 291.628 115.324 291.888 115.54 292.107C115.756 292.327 116.014 292.502 116.298 292.621C116.581 292.741 116.886 292.804 117.194 292.805V292.805Z" fill="#92E3A9"/>
<path d="M414.514 189.464H219.361V201.413H414.514V189.464Z" fill="white" stroke="#2E353A" stroke-width="1.50103" stroke-miterlimit="10"/>
<path d="M105.813 187.559L100.185 192.977L106.024 199.236" stroke="#2E353A" stroke-width="1.50103" stroke-linecap="round" stroke-linejoin="round"/>
<path d="M100.185 192.977H112.691" stroke="#2E353A" stroke-width="1.50103" stroke-linecap="round" stroke-linejoin="round"/>
<path d="M137.717 187.559L143.358 192.977L137.507 199.236" stroke="#2E353A" stroke-width="1.50103" stroke-linecap="round" stroke-linejoin="round"/>
<path d="M143.345 192.977H130.839" stroke="#2E353A" stroke-width="1.50103" stroke-linecap="round" stroke-linejoin="round"/>
<path d="M170.238 192.272C169.878 191.014 169.128 189.903 168.097 189.099C167.065 188.294 165.805 187.837 164.498 187.794C163.596 187.793 162.707 188.009 161.906 188.424C161.105 188.839 160.415 189.441 159.895 190.178C159.375 190.915 159.04 191.766 158.918 192.66C158.795 193.554 158.89 194.464 159.193 195.314C159.496 196.164 160 196.928 160.66 197.543C161.32 198.157 162.119 198.604 162.988 198.845C163.857 199.087 164.772 199.116 165.655 198.93C166.538 198.744 167.363 198.348 168.061 197.777" stroke="#2E353A" stroke-width="1.50103" stroke-linecap="round" stroke-linejoin="round"/>
<path d="M166.44 192.878H170.819V187.67" stroke="#2E353A" stroke-width="1.50103" stroke-linecap="round" stroke-linejoin="round"/>
<path d="M200.063 191.035L194.867 186.829L189.919 191.035V200.189H200.063V191.035Z" stroke="#2E353A" stroke-width="1.50103" stroke-linecap="round" stroke-linejoin="round"/>
<path d="M196.847 193.509H192.888V199.855H196.847V193.509Z" fill="#2E353A"/>
<path d="M189.919 191.035L186.95 193.756" stroke="#2E353A" stroke-width="1.50103" stroke-linecap="round" stroke-linejoin="round"/>
<path d="M200.063 191.035L202.859 193.521" stroke="#2E353A" stroke-width="1.50103" stroke-linecap="round" stroke-linejoin="round"/>
<path d="M468.473 191.653H484.122" stroke="#2E353A" stroke-width="1.50103" stroke-linecap="round" stroke-linejoin="round"/>
<path d="M468.473 195.179H484.122" stroke="#2E353A" stroke-width="1.50103" stroke-linecap="round" stroke-linejoin="round"/>
<path d="M468.473 198.717H484.122" stroke="#2E353A" stroke-width="1.50103" stroke-linecap="round" stroke-linejoin="round"/>
<path d="M468.473 202.242H484.122" stroke="#2E353A" stroke-width="1.50103" stroke-linecap="round" stroke-linejoin="round"/>
<g style="mix-blend-mode:multiply">
<path d="M496.801 262.547H241.973C240.737 262.547 239.513 262.791 238.371 263.264C237.229 263.737 236.191 264.43 235.317 265.305C234.443 266.179 233.749 267.217 233.276 268.359C232.803 269.501 232.56 270.725 232.56 271.961V342.732C232.56 343.968 232.803 345.192 233.276 346.334C233.749 347.476 234.443 348.514 235.317 349.388C236.191 350.262 237.229 350.956 238.371 351.429C239.513 351.902 240.737 352.145 241.973 352.145H496.801V262.547Z" fill="#92E3A9"/>
</g>
<path d="M315.329 639C435.032 639 532.069 634.032 532.069 627.904C532.069 621.776 435.032 616.808 315.329 616.808C195.627 616.808 98.5896 621.776 98.5896 627.904C98.5896 634.032 195.627 639 315.329 639Z" fill="#92E3A9"/>
<path opacity="0.3" d="M315.329 639C435.032 639 532.069 634.032 532.069 627.904C532.069 621.776 435.032 616.808 315.329 616.808C195.627 616.808 98.5896 621.776 98.5896 627.904C98.5896 634.032 195.627 639 315.329 639Z" fill="white"/>
<path d="M322.059 620.284C321.035 620.296 320.03 620.555 319.127 621.038C317.581 621.855 310.901 623.686 306.596 625.207C299.879 627.595 294.634 626.308 295.178 628.065C295.723 629.821 306.2 633.347 312.262 633.433C318.323 633.52 321.243 632.011 324.137 632.073C327.032 632.134 324.904 633.532 329.729 634.077C334.553 634.621 336.124 634.633 337.806 631.998C339.489 629.363 340.441 628.683 339.909 625.343V625.232C339.641 623.795 338.872 622.501 337.74 621.577C336.608 620.653 335.185 620.16 333.724 620.185L322.059 620.284Z" fill="#2E353A"/>
<path d="M359.603 617.067C358.704 617.044 357.82 617.295 357.067 617.785C355.743 618.614 349.991 620.358 346.292 621.855C340.515 624.205 335.914 622.634 336.396 624.539C336.879 626.444 343.113 629.042 348.395 629.339C351.252 629.516 354.12 629.409 356.956 629.017C362.671 628.695 359.034 630.724 361.087 631.553C362.522 632.007 364.023 632.221 365.528 632.184C371.552 632.505 372.282 632.988 373.668 630.205C375.053 627.421 375.845 626.729 375.264 623.116V623.005C374.732 619.801 372.344 617.439 369.722 617.364L359.603 617.067Z" fill="#2E353A"/>
<path d="M305.681 428.668C305.681 428.668 306.72 465.037 306.72 477.246C306.72 489.455 309.837 544.639 313.994 564.642C318.15 584.645 320.488 613.22 320.488 616.338C320.488 619.455 319.449 620.234 321.527 622.312C323.605 624.391 331.423 628.287 334.269 626.988C337.114 625.69 338.685 620.803 338.685 620.803C338.685 620.803 338.685 593.786 339.464 576.122C340.243 558.457 338.945 535.3 338.945 535.3C338.945 535.3 349.076 582.072 351.933 591.424C354.791 600.776 357.129 617.735 357.648 621.112C358.168 624.49 360.444 624.601 363.351 624.601C366.84 624.601 371.157 624.156 372.715 621.558C374.274 618.96 370.897 591.684 370.897 580.736C370.897 569.788 362.324 502.172 363.104 485.485C363.883 468.797 368.819 440.024 367.26 431.451C366.333 426.409 365.812 421.3 365.701 416.174C365.701 416.174 312.175 409.989 305.681 428.668Z" fill="#2E353A" stroke="#2E353A" stroke-miterlimit="10"/>
<path d="M308.81 432.75C309.676 435.978 310.801 439.13 312.175 442.176C313.169 444.28 314.807 446.013 316.851 447.124" stroke="white" stroke-miterlimit="10"/>
<path d="M325.621 613.381C325.881 617.05 325.811 620.735 325.411 624.391" stroke="white" stroke-miterlimit="10"/>
<path d="M317.89 470.467C318.62 498.746 320.005 546.854 321.267 558.408C322.677 571.211 323.927 590.805 324.78 602.693" stroke="white" stroke-miterlimit="10"/>
<path d="M316.764 433.146C316.504 433.925 317.37 449.45 317.37 449.45C317.37 449.45 317.494 454.695 317.704 462.909" stroke="white" stroke-miterlimit="10"/>
<path d="M244.893 330.646C244.893 330.646 244.633 324.461 245.932 325.97C247.231 327.479 247.491 330.386 248.01 333.244C248.01 333.244 248.79 327.788 249.569 329.347C250.417 331.291 250.687 333.438 250.348 335.532C250.185 338.5 250.812 341.459 252.167 344.105C253.206 345.663 246.712 341.297 244.893 330.646Z" fill="white" stroke="#2E353A" stroke-miterlimit="10"/>
<path d="M440.418 338.785C440.418 338.785 444.129 333.763 442.174 334.332C440.22 334.901 438.463 337.128 436.385 339.206C436.385 339.206 438.785 334.258 437.263 335.099C435.459 336.249 434.025 337.893 433.132 339.837C431.612 342.39 429.438 344.491 426.835 345.923C425.103 346.641 432.958 346.603 440.418 338.785Z" fill="white" stroke="#2E353A" stroke-linecap="round" stroke-linejoin="round"/>
<path d="M444.376 255.818V252.688C444.378 252.468 444.336 252.249 444.253 252.045C444.17 251.841 444.047 251.656 443.892 251.499C443.736 251.343 443.552 251.219 443.348 251.134C443.145 251.049 442.927 251.006 442.706 251.006H440.232C439.872 249.425 439.249 247.915 438.389 246.54L440.096 244.833C440.411 244.518 440.587 244.091 440.587 243.645C440.587 243.2 440.411 242.773 440.096 242.458L437.882 240.244C437.567 239.929 437.14 239.753 436.695 239.753C436.249 239.753 435.822 239.929 435.507 240.244L433.8 241.951C432.423 241.086 430.909 240.462 429.322 240.108V237.634C429.323 237.413 429.281 237.195 429.198 236.991C429.115 236.787 428.992 236.601 428.837 236.445C428.682 236.288 428.497 236.164 428.294 236.079C428.09 235.995 427.872 235.951 427.652 235.951H424.584C424.14 235.954 423.715 236.133 423.402 236.448C423.09 236.763 422.914 237.189 422.914 237.634V240.108C421.33 240.46 419.82 241.084 418.448 241.951L416.729 240.244C416.574 240.088 416.39 239.965 416.187 239.881C415.984 239.797 415.767 239.754 415.548 239.754C415.328 239.754 415.111 239.797 414.908 239.881C414.705 239.965 414.521 240.088 414.366 240.244L412.214 242.458C411.899 242.773 411.723 243.2 411.723 243.645C411.723 244.091 411.899 244.518 412.214 244.833L413.921 246.54C413.057 247.915 412.43 249.424 412.065 251.006H409.653C409.207 251.006 408.779 251.183 408.463 251.499C408.148 251.814 407.971 252.242 407.971 252.688V255.818C407.971 256.039 408.014 256.258 408.099 256.462C408.183 256.666 408.307 256.851 408.463 257.007C408.62 257.164 408.805 257.288 409.009 257.372C409.213 257.457 409.432 257.5 409.653 257.5H412.065C412.43 259.082 413.057 260.591 413.921 261.966L412.214 263.673C411.899 263.988 411.723 264.415 411.723 264.861C411.723 265.306 411.899 265.733 412.214 266.048L414.428 268.262C414.583 268.418 414.767 268.541 414.97 268.625C415.173 268.709 415.39 268.752 415.609 268.752C415.829 268.752 416.046 268.709 416.249 268.625C416.451 268.541 416.636 268.418 416.791 268.262L418.51 266.555C419.883 267.421 421.393 268.048 422.976 268.411V270.823C422.976 271.267 423.151 271.693 423.464 272.008C423.777 272.323 424.202 272.502 424.646 272.505H427.788C428.008 272.505 428.226 272.462 428.43 272.377C428.633 272.292 428.818 272.168 428.973 272.012C429.128 271.855 429.251 271.67 429.334 271.466C429.418 271.262 429.46 271.043 429.458 270.823V268.411C431.044 268.046 432.557 267.419 433.936 266.555L435.643 268.262C435.958 268.577 436.385 268.753 436.831 268.753C437.276 268.753 437.703 268.577 438.018 268.262L440.232 266.048C440.547 265.733 440.723 265.306 440.723 264.861C440.723 264.415 440.547 263.988 440.232 263.673L438.525 261.966C439.385 260.591 440.008 259.081 440.368 257.5H442.843C443.264 257.466 443.656 257.273 443.941 256.961C444.225 256.649 444.381 256.24 444.376 255.818ZM426.86 261.384C425.386 261.54 423.899 261.235 422.605 260.511C421.311 259.788 420.272 258.681 419.633 257.343C418.994 256.005 418.785 254.502 419.035 253.04C419.284 251.579 419.981 250.23 421.028 249.181C422.076 248.131 423.423 247.432 424.884 247.18C426.345 246.927 427.849 247.133 429.188 247.77C430.527 248.407 431.636 249.443 432.362 250.735C433.088 252.028 433.396 253.514 433.243 254.989C433.077 256.622 432.354 258.149 431.197 259.313C430.039 260.477 428.517 261.209 426.885 261.384H426.86Z" fill="white" stroke="#2E353A" stroke-linecap="round" stroke-linejoin="round"/>
<path d="M293.842 342.521V339.379C293.842 339.159 293.798 338.941 293.714 338.737C293.629 338.534 293.505 338.349 293.348 338.194C293.192 338.039 293.007 337.916 292.802 337.833C292.598 337.75 292.38 337.708 292.16 337.709H289.686C289.343 336.146 288.736 334.652 287.892 333.293L289.599 331.574C289.754 331.419 289.877 331.234 289.961 331.032C290.045 330.829 290.089 330.612 290.089 330.392C290.089 330.173 290.045 329.956 289.961 329.753C289.877 329.55 289.754 329.366 289.599 329.211L287.385 326.984C287.069 326.67 286.642 326.494 286.197 326.494C285.752 326.494 285.325 326.67 285.01 326.984L283.302 328.704C281.928 327.84 280.419 327.213 278.837 326.848V324.374C278.834 323.93 278.655 323.505 278.34 323.192C278.025 322.88 277.599 322.704 277.154 322.704H274.025C273.581 322.704 273.155 322.88 272.84 323.192C272.524 323.505 272.346 323.93 272.342 324.374V326.848C270.761 327.213 269.251 327.84 267.877 328.704L266.17 326.984C265.854 326.67 265.427 326.494 264.982 326.494C264.537 326.494 264.11 326.67 263.795 326.984L261.58 329.211C261.425 329.366 261.302 329.55 261.218 329.753C261.134 329.956 261.091 330.173 261.091 330.392C261.091 330.612 261.134 330.829 261.218 331.032C261.302 331.234 261.425 331.419 261.58 331.574L263.287 333.293C262.422 334.666 261.794 336.176 261.432 337.759H258.958C258.737 337.757 258.519 337.799 258.315 337.882C258.111 337.965 257.925 338.088 257.769 338.243C257.613 338.399 257.488 338.583 257.404 338.787C257.319 338.99 257.275 339.208 257.275 339.429V342.571C257.275 342.791 257.319 343.009 257.404 343.213C257.488 343.416 257.613 343.601 257.769 343.756C257.925 343.911 258.111 344.034 258.315 344.117C258.519 344.2 258.737 344.242 258.958 344.241H261.432C261.796 345.826 262.424 347.34 263.287 348.719L261.58 350.426C261.266 350.741 261.09 351.168 261.09 351.613C261.09 352.059 261.266 352.486 261.58 352.801L263.795 355.015C264.11 355.33 264.537 355.506 264.982 355.506C265.427 355.506 265.854 355.33 266.17 355.015L267.877 353.296C269.251 354.16 270.761 354.787 272.342 355.151V357.625C272.342 357.846 272.386 358.064 272.471 358.267C272.555 358.471 272.68 358.655 272.836 358.811C272.992 358.966 273.178 359.089 273.382 359.172C273.586 359.255 273.804 359.297 274.025 359.295H277.154C277.375 359.297 277.593 359.255 277.797 359.172C278.001 359.089 278.187 358.966 278.343 358.811C278.5 358.655 278.624 358.471 278.709 358.267C278.793 358.064 278.837 357.846 278.837 357.625V355.151C280.419 354.787 281.928 354.16 283.302 353.296L285.01 355.015C285.325 355.33 285.752 355.506 286.197 355.506C286.642 355.506 287.069 355.33 287.385 355.015L289.599 352.801C289.913 352.486 290.09 352.059 290.09 351.613C290.09 351.168 289.913 350.741 289.599 350.426L287.892 348.719C288.757 347.342 289.38 345.828 289.735 344.241H292.209C292.429 344.236 292.647 344.188 292.848 344.098C293.05 344.009 293.232 343.881 293.384 343.721C293.535 343.561 293.654 343.373 293.733 343.167C293.811 342.961 293.849 342.742 293.842 342.521V342.521ZM276.35 348.323C274.825 348.484 273.287 348.168 271.949 347.419C270.611 346.67 269.537 345.525 268.876 344.141C268.215 342.757 267.999 341.202 268.257 339.69C268.516 338.178 269.237 336.784 270.32 335.698C271.404 334.613 272.797 333.889 274.308 333.628C275.819 333.367 277.375 333.58 278.76 334.238C280.145 334.897 281.292 335.968 282.044 337.305C282.795 338.642 283.114 340.179 282.956 341.705C282.781 343.398 282.029 344.98 280.826 346.185C279.624 347.39 278.043 348.145 276.35 348.323V348.323Z" fill="white" stroke="#2E353A" stroke-linecap="round" stroke-linejoin="round"/>
<path d="M510.186 252.824H247.8C242.601 252.824 238.386 257.039 238.386 262.238V333.008C238.386 338.208 242.601 342.422 247.8 342.422H510.186C515.385 342.422 519.6 338.208 519.6 333.008V262.238C519.6 257.039 515.385 252.824 510.186 252.824Z" fill="white" stroke="#2E353A" stroke-linecap="round" stroke-linejoin="round"/>
<path d="M510.829 276.377H256.991" stroke="#2E353A" stroke-linecap="round" stroke-linejoin="round"/>
<path d="M510.829 296.009H256.991" stroke="#2E353A" stroke-linecap="round" stroke-linejoin="round"/>
<path d="M510.829 315.641H256.991" stroke="#2E353A" stroke-linecap="round" stroke-linejoin="round"/>
<path d="M264.104 357.65C264.104 357.65 261.049 355.04 260.678 353.939C260.339 352.197 259.838 350.491 259.181 348.842C258.117 346.529 254.233 344.463 252.996 341.717C251.759 338.971 250.113 334.159 249.285 333.231C248.456 332.303 247.231 332.724 246.811 335.322C246.39 337.919 251.252 344.29 251.561 345.218C251.87 346.146 246.477 344.537 243.013 342.311C239.549 340.084 237.422 335.445 235.331 332.501C233.24 329.557 231.533 331.623 231.62 333.318C231.706 335.012 237.929 344.575 239.129 348.063C240.329 351.551 244.324 355.3 246.551 357.205C248.777 359.11 253.664 359.877 253.664 359.877L256.942 363.142L264.104 357.65Z" fill="white" stroke="#2E353A" stroke-miterlimit="10"/>
<path d="M254.765 371.171L250.349 361.559C251.217 360.305 252.334 359.243 253.63 358.439C254.926 357.634 256.373 357.105 257.882 356.883C263.337 355.844 264.067 356.883 264.067 356.883L266.925 366.779C266.925 366.779 257.585 367.534 254.765 371.171Z" fill="#92E3A9" stroke="#2E353A" stroke-linecap="round" stroke-linejoin="round"/>
<path d="M297.628 338.241C297.628 338.241 284.379 376.169 282.561 381.104C282.091 382.341 281.188 384.444 280.087 386.844C277.773 382.824 272.664 373.954 271.143 370.194C269.065 365.246 266.195 364.009 261.531 364.479C256.868 364.949 252.699 369.934 252.699 373.571C252.699 380.461 258.797 389.652 261.494 395.837C264.389 402.394 266.331 404.843 271.217 410.323C277.402 417.263 284.416 414.863 289.154 408.109C292.791 402.913 302.056 383.999 302.056 383.999C302.056 383.999 299.706 344.154 297.628 338.241Z" fill="#92E3A9" stroke="#2E353A" stroke-linecap="round" stroke-linejoin="round"/>
<path d="M280.074 386.782C280.074 386.782 274.953 394.143 274.471 398.039" stroke="#2E353A" stroke-linecap="round" stroke-linejoin="round"/>
<path d="M408.404 352.801C408.404 352.801 412.028 351.069 412.672 350.117C413.444 348.515 414.367 346.99 415.43 345.564C417.051 343.61 421.393 342.633 423.285 340.282C425.178 337.932 428.011 333.726 429.075 333.058C430.138 332.39 431.19 333.058 430.955 335.718C430.72 338.377 424.361 343.239 423.842 344.006C423.322 344.773 429.842 342.509 433.862 343.338C437.882 344.167 442.669 342.36 446.232 341.73C449.795 341.099 449.56 343.758 448.347 344.933C447.135 346.109 435.977 348.558 432.662 350.203C429.347 351.848 426.477 353.135 423.743 354.384C421.78 355.351 419.875 356.433 418.04 357.625L414.032 359.939L408.404 352.801Z" fill="white" stroke="#2E353A" stroke-linecap="round" stroke-linejoin="round"/>
<path d="M417.162 367.287L421.578 357.675C420.71 356.421 419.593 355.359 418.297 354.555C417.001 353.75 415.554 353.221 414.045 352.999C408.589 351.96 407.859 352.999 407.859 352.999L405.002 362.895C405.002 362.895 414.354 363.65 417.162 367.287Z" fill="#92E3A9" stroke="#2E353A" stroke-miterlimit="10"/>
<path d="M410.457 360.508C405.781 359.988 402.923 361.287 400.845 366.223C399.262 369.934 394.227 378.853 391.901 382.873C390.788 380.473 389.885 378.42 389.427 377.133C387.609 372.185 374.36 334.27 374.36 334.27C372.282 340.245 369.944 380.04 369.944 380.04C369.944 380.04 379.84 398.942 383.551 404.15C385.691 407.205 387.386 410.038 391.308 410.62C402.837 412.339 406.288 401.49 409.863 393.474C412.102 388.415 414.329 383.343 416.407 378.21C417.421 375.735 419.351 372.408 419.351 369.649C419.289 365.988 415.133 361.052 410.457 360.508Z" fill="#92E3A9" stroke="#2E353A" stroke-linecap="round" stroke-linejoin="round"/>
<path d="M391.901 382.898C391.901 382.898 397.097 390.246 398.087 394.143" stroke="#2E353A" stroke-linecap="round" stroke-linejoin="round"/>
<path d="M318.199 268.547C318.199 268.547 314.562 282.055 315.342 283.391C316.121 284.727 317.94 284.171 316.9 286.768C315.861 289.366 313.523 294.314 314.043 296.392C314.562 298.471 317.42 300.029 317.42 300.029C317.42 300.029 318.719 309.381 320.018 311.163C321.317 312.944 328.331 311.942 328.331 311.942L328.85 318.956L349.645 317.719L348.865 305.25L347.826 266.79L318.199 268.547Z" fill="white"/>
<g style="mix-blend-mode:multiply" opacity="0.5">
<path d="M328.281 311.942L328.801 318.956L349.595 317.719L348.816 305.25L348.371 289.069C345.662 289.069 343.188 289.181 342.421 289.181C340.528 289.181 336.396 288.859 335.444 289.181C334.491 289.502 333.229 289.811 333.229 289.811L328.479 294.883C328.479 294.883 328.789 301.538 326.574 305.027C324.719 307.946 319.845 309.097 319.573 310.42C319.685 310.698 319.817 310.966 319.968 311.224C320.216 311.41 320.488 311.608 320.785 311.806C323.036 312.709 328.281 311.942 328.281 311.942Z" fill="#92E3A9"/>
</g>
<path d="M318.199 268.547C318.199 268.547 314.562 282.055 315.342 283.391C316.121 284.727 317.94 284.171 316.9 286.768C315.861 289.366 313.523 294.314 314.043 296.392C314.562 298.471 317.42 300.029 317.42 300.029C317.42 300.029 318.719 309.381 320.018 311.163C321.317 312.944 328.331 311.942 328.331 311.942L328.85 318.956L349.645 317.719L348.865 305.25L347.826 266.79L318.199 268.547Z" stroke="#2E353A" stroke-miterlimit="10"/>
<path d="M320.055 287.263C320.055 288.314 319.672 289.156 319.202 289.156C318.731 289.156 318.336 288.314 318.336 287.263C318.336 286.212 318.719 285.37 319.202 285.37C319.684 285.37 320.055 286.212 320.055 287.263Z" fill="#2E353A"/>
<path d="M343.101 258.156C341.864 258.354 331.968 258.156 324.125 259.455C316.282 260.754 313.994 261.273 314.229 264.65C314.464 268.027 313.709 269.326 316.567 270.625C317.783 271.263 319.102 271.682 320.463 271.862C320.463 271.862 319.684 275.499 319.424 278.047C319.164 280.596 323.84 283.503 323.84 283.503C323.691 285.242 323.779 286.994 324.1 288.711C324.62 289.948 325.919 290.269 326.698 289.23C327.477 288.191 327.997 283.243 328.776 285.321C329.555 287.399 332.673 302.998 334.763 304.817C336.854 306.635 346.194 305.596 348.791 305.076C351.389 304.557 356.325 293.646 358.688 287.14C361.05 280.633 359.925 269.215 356.609 264.019C353.294 258.824 346.478 257.636 343.101 258.156Z" fill="white" stroke="#2E353A" stroke-miterlimit="10"/>
<path d="M357.401 265.59C356.473 268.064 355.52 271.157 352.885 271.355C348.766 271.676 348.766 266.283 345.909 264.378C343.051 262.473 347.814 273.891 345.599 270.724C343.385 267.557 337.67 264.378 332.598 264.069C327.526 263.76 335.443 273.26 333.551 273.26C331.658 273.26 328.479 267.236 328.479 265.652C328.479 264.069 323.716 264.019 318.323 264.019C312.929 264.019 315.156 267.186 315.156 269.091C315.158 269.362 315.235 269.628 315.379 269.858C315.761 270.146 316.176 270.387 316.616 270.576C317.832 271.214 319.151 271.633 320.512 271.813C320.512 271.813 319.733 275.449 319.473 277.998C319.214 280.546 323.889 283.453 323.889 283.453C323.741 285.193 323.828 286.945 324.149 288.661C324.669 289.898 325.968 290.22 326.747 289.18C327.526 288.141 328.046 283.193 328.825 285.271C329.605 287.35 332.722 302.949 334.812 304.767C336.903 306.585 346.243 305.546 348.84 305.027C351.438 304.507 356.374 293.597 358.737 287.09C360.827 281.338 360.122 271.231 357.401 265.59Z" fill="#2E353A"/>
<path d="M323.865 318.177L318.15 328.568C318.15 328.568 332.437 324.411 340.243 324.411C345.73 324.51 351.202 325.031 356.609 325.97L352.972 315.839C352.972 315.839 333.217 313.76 323.865 318.177Z" fill="#92E3A9" stroke="#2E353A" stroke-miterlimit="10"/>
<path d="M320.228 327.269C320.228 327.269 310.876 332.217 305.384 334.802C302.848 336.065 300.246 337.192 297.591 338.179C297.591 338.179 304.085 420.875 304.085 425.291C304.085 429.707 303.825 429.967 305.384 431.266C306.943 432.565 315.008 433.158 329.296 432.899C343.583 432.639 361.458 429.707 362.807 429.707C363.857 429.632 364.874 429.31 365.777 428.769C366.679 428.227 367.442 427.481 368.002 426.59C369.561 424.252 374.497 336.101 374.756 335.05C375.016 333.998 357.611 326.477 355.793 325.957C353.974 325.438 343.62 318.449 320.228 327.269Z" fill="#92E3A9" stroke="#2E353A" stroke-miterlimit="10"/>
<path d="M351.723 393.474C350.088 394.966 348.338 396.327 346.49 397.544" stroke="#2E353A" stroke-linecap="round" stroke-linejoin="round"/>
<path d="M370.822 359.592C370.822 359.592 367.21 375.538 356.671 388.267" stroke="#2E353A" stroke-linecap="round" stroke-linejoin="round"/>
<path d="M326.574 285.309C326.918 287.728 327.129 290.165 327.205 292.607C327.205 295.452 325.3 297.036 326.574 298.31C327.848 299.584 328.789 298.941 329.741 296.726C330.764 294.103 331.187 291.284 330.978 288.475C330.694 286.286 330.372 281.499 326.574 285.309Z" fill="white" stroke="#2E353A" stroke-miterlimit="10"/>
<path d="M340.565 542.895L347.529 471.692L358.366 458.53" stroke="white" stroke-miterlimit="10"/>
<path d="M661.581 239.404C643.19 211.713 624.75 184.072 605.507 172.405C586.314 160.738 566.27 165.094 543.169 162.841C520.067 160.588 493.96 151.674 474.266 136.001C454.622 120.278 441.343 97.7947 433.726 73.9594C426.059 50.1742 424.055 25.0871 422 0H661.581V239.404Z" fill="#D2DDCE"/>
<path d="M661.581 179.566C647.751 158.785 633.97 138.054 619.538 129.291C605.106 120.578 590.073 123.833 572.784 122.131C555.446 120.428 535.852 113.768 521.12 102.001C506.337 90.1834 496.415 73.3585 490.702 55.4821C484.94 37.6557 483.436 18.8279 481.883 0H661.581V179.566Z" fill="#2F9E41"/>
<path d="M661.581 119.727C652.361 105.857 643.19 92.0361 633.569 86.1775C623.948 80.3689 613.926 82.5721 602.4 81.4204C590.824 80.3188 577.795 75.8622 567.924 68.0006C558.102 60.139 551.487 48.8723 547.629 37.0047C543.82 25.0871 542.818 12.5686 541.766 0H661.581V119.727Z" fill="#92E3A9"/>
<path d="M661.581 59.8385C656.971 52.9283 652.361 46.0181 647.55 43.1138C642.739 40.2095 637.728 41.261 631.966 40.7102C626.203 40.1594 619.688 37.9061 614.777 34.0003C609.816 30.0444 606.509 24.4361 604.605 18.4773C602.701 12.5686 602.2 6.25926 601.698 0H661.581V59.8385Z" fill="#D1F9D8"/>
<defs>
<clipPath id="clip0_914_84">
<rect width="662" height="365" fill="white" transform="translate(0 414)"/>
</clipPath>
</defs>
</svg>
